# Object Export From Tinkercad Server 2015

mtllib obj.mtl

o obj_0
v -47.2 		22.8 		21
v -47.2 		56.3 		21
v -47.2 		22.8 		1
v -47.2 		56.3 		1
v -51 		56.3 		21
v -51 		22.8 		21
v -51 		56.3 		1
v -51 		22.8 		1
# 8 vertices

g group_0_15277357

usemtl color_15277357
s 0

f 1 	3 	2
f 3 	4 	2
f 5 	7 	6
f 7 	8 	6
f 5 	6 	2
f 6 	1 	2
f 8 	7 	3
f 7 	4 	3
f 6 	8 	1
f 8 	3 	1
f 2 	4 	5
f 4 	7 	5
# 12 faces

 #end of obj_0

o obj_1
v -10 		-2.3 		21
v -10 		-1.1 		21
v -10 		-2.3 		1
v -10 		-1.1 		1
v -51 		-1.1 		21
v -51 		-2.3 		21
v -51 		-1.1 		1
v -51 		-2.3 		1
# 8 vertices

g group_1_15277357

usemtl color_15277357
s 0

f 9 	11 	10
f 11 	12 	10
f 13 	15 	14
f 15 	16 	14
f 13 	14 	10
f 14 	9 	10
f 16 	15 	11
f 15 	12 	11
f 14 	16 	9
f 16 	11 	9
f 10 	12 	13
f 12 	15 	13
# 12 faces

 #end of obj_1

o obj_2
v 52 		-60 		1.6
v 52 		62 		1.6
v 52 		-60 		-2
v 52 		62 		-2
v -53 		62 		1.6
v -53 		-60 		1.6
v -53 		62 		-2
v -53 		-60 		-2
# 8 vertices

g group_2_1206582

usemtl color_1206582
s 0

f 17 	19 	18
f 19 	20 	18
f 21 	23 	22
f 23 	24 	22
f 21 	22 	18
f 22 	17 	18
f 24 	23 	19
f 23 	20 	19
f 22 	24 	17
f 24 	19 	17
f 18 	20 	21
f 20 	23 	21
# 12 faces

 #end of obj_2

o obj_3
v -47.2 		-58.3 		21
v -47.2 		-54.5 		21
v -47.2 		-58.3 		1
v -47.2 		-54.5 		1
v -51 		-54.5 		21
v -51 		-58.3 		21
v -51 		-54.5 		1
v -51 		-58.3 		1
# 8 vertices

g group_3_15277357

usemtl color_15277357
s 0

f 25 	27 	26
f 27 	28 	26
f 29 	31 	30
f 31 	32 	30
f 29 	30 	26
f 30 	25 	26
f 32 	31 	27
f 31 	28 	27
f 30 	32 	25
f 32 	27 	25
f 26 	28 	29
f 28 	31 	29
# 12 faces

 #end of obj_3

o obj_4
v 50 		-33.5 		21
v 50 		-32.3 		21
v 50 		-33.5 		1
v 50 		-32.3 		1
v 3 		-32.3 		21
v 3 		-33.5 		21
v 3 		-32.3 		1
v 3 		-33.5 		1
# 8 vertices

g group_4_15277357

usemtl color_15277357
s 0

f 33 	35 	34
f 35 	36 	34
f 37 	39 	38
f 39 	40 	38
f 37 	38 	34
f 38 	33 	34
f 40 	39 	35
f 39 	36 	35
f 38 	40 	33
f 40 	35 	33
f 34 	36 	37
f 36 	39 	37
# 12 faces

 #end of obj_4

o obj_5
v -11.2 		-58.3 		21
v -11.2 		-54.5 		21
v -11.2 		-58.3 		1
v -11.2 		-54.5 		1
v -47.2 		-54.5 		21
v -47.2 		-58.3 		21
v -47.2 		-54.5 		1
v -47.2 		-58.3 		1
# 8 vertices

g group_5_15277357

usemtl color_15277357
s 0

f 41 	43 	42
f 43 	44 	42
f 45 	47 	46
f 47 	48 	46
f 45 	46 	42
f 46 	41 	42
f 48 	47 	43
f 47 	44 	43
f 46 	48 	41
f 48 	43 	41
f 42 	44 	45
f 44 	47 	45
# 12 faces

 #end of obj_5

o obj_6
v 50 		-58.3 		21
v 50 		-54.5 		21
v 50 		-58.3 		1
v 50 		-54.5 		1
v 46.2 		-54.5 		21
v 46.2 		-58.3 		21
v 46.2 		-54.5 		1
v 46.2 		-58.3 		1
# 8 vertices

g group_6_15277357

usemtl color_15277357
s 0

f 49 	51 	50
f 51 	52 	50
f 53 	55 	54
f 55 	56 	54
f 53 	54 	50
f 54 	49 	50
f 56 	55 	51
f 55 	52 	51
f 54 	56 	49
f 56 	51 	49
f 50 	52 	53
f 52 	55 	53
# 12 faces

 #end of obj_6

o obj_7
v -9.2 		21.6 		21
v -9.2 		60.1 		21
v -9.2 		21.6 		1
v -9.2 		60.1 		1
v -11.2 		60.1 		21
v -11.2 		21.6 		21
v -11.2 		60.1 		1
v -11.2 		21.6 		1
# 8 vertices

g group_7_15277357

usemtl color_15277357
s 0

f 57 	59 	58
f 59 	60 	58
f 61 	63 	62
f 63 	64 	62
f 61 	62 	58
f 62 	57 	58
f 64 	63 	59
f 63 	60 	59
f 62 	64 	57
f 64 	59 	57
f 58 	60 	61
f 60 	63 	61
# 12 faces

 #end of obj_7

o obj_8
v 50 		-54.5 		21
v 50 		-33.5 		21
v 50 		-54.5 		1
v 50 		-33.5 		1
v 46.2 		-33.5 		21
v 46.2 		-54.5 		21
v 46.2 		-33.5 		1
v 46.2 		-54.5 		1
# 8 vertices

g group_8_15277357

usemtl color_15277357
s 0

f 65 	67 	66
f 67 	68 	66
f 69 	71 	70
f 71 	72 	70
f 69 	70 	66
f 70 	65 	66
f 72 	71 	67
f 71 	68 	67
f 70 	72 	65
f 72 	67 	65
f 66 	68 	69
f 68 	71 	69
# 12 faces

 #end of obj_8

o obj_9
v -47.2 		56.3 		21
v -47.2 		60.1 		21
v -47.2 		56.3 		1
v -47.2 		60.1 		1
v -51 		60.1 		21
v -51 		56.3 		21
v -51 		60.1 		1
v -51 		56.3 		1
# 8 vertices

g group_9_15277357

usemtl color_15277357
s 0

f 73 	75 	74
f 75 	76 	74
f 77 	79 	78
f 79 	80 	78
f 77 	78 	74
f 78 	73 	74
f 80 	79 	75
f 79 	76 	75
f 78 	80 	73
f 80 	75 	73
f 74 	76 	77
f 76 	79 	77
# 12 faces

 #end of obj_9

o obj_10
v 50 		56.3 		21
v 50 		60.1 		21
v 50 		56.3 		1
v 50 		60.1 		1
v 35.8 		60.1 		21
v 35.8 		56.3 		21
v 35.8 		60.1 		1
v 35.8 		56.3 		1
# 8 vertices

g group_10_15277357

usemtl color_15277357
s 0

f 81 	83 	82
f 83 	84 	82
f 85 	87 	86
f 87 	88 	86
f 85 	86 	82
f 86 	81 	82
f 88 	87 	83
f 87 	84 	83
f 86 	88 	81
f 88 	83 	81
f 82 	84 	85
f 84 	87 	85
# 12 faces

 #end of obj_10

o obj_11
v 35.8 		56.3 		21
v 35.8 		60.1 		21
v 35.8 		56.3 		1
v 35.8 		60.1 		1
v 32 		60.1 		21
v 32 		56.3 		21
v 32 		60.1 		1
v 32 		56.3 		1
# 8 vertices

g group_11_15277357

usemtl color_15277357
s 0

f 89 	91 	90
f 91 	92 	90
f 93 	95 	94
f 95 	96 	94
f 93 	94 	90
f 94 	89 	90
f 96 	95 	91
f 95 	92 	91
f 94 	96 	89
f 96 	91 	89
f 90 	92 	93
f 92 	95 	93
# 12 faces

 #end of obj_11

o obj_12
v 32 		56.3 		21
v 32 		60.1 		21
v 32 		56.3 		1
v 32 		60.1 		1
v -9.2 		60.1 		21
v -9.2 		56.3 		21
v -9.2 		60.1 		1
v -9.2 		56.3 		1
# 8 vertices

g group_12_15277357

usemtl color_15277357
s 0

f 97 	99 	98
f 99 	100 	98
f 101 	103 	102
f 103 	104 	102
f 101 	102 	98
f 102 	97 	98
f 104 	103 	99
f 103 	100 	99
f 102 	104 	97
f 104 	99 	97
f 98 	100 	101
f 100 	103 	101
# 12 faces

 #end of obj_12

o obj_13
v 46.2 		-58.3 		21
v 46.2 		-58.3 		1
v 46.2 		-54.5 		1
v 46.2 		-54.5 		21
v 21.2 		-54.5 		21
v 21.2 		-54.5 		1
v 21.2 		-58.3 		1
v 21.2 		-58.3 		21
v 23.998 		-54.5 		1
v 23.998 		-58.3 		1
v 33.003 		-58.3 		1
v 33.003 		-54.5 		1
v 23.998 		-58.3 		17.003
v 33.003 		-58.3 		17.003
v 33.003 		-54.5 		17.003
v 23.998 		-54.5 		17.003
# 16 vertices

g group_13_15277357

usemtl color_15277357
s 0

f 105 	106 	107
f 105 	107 	108
f 109 	110 	111
f 109 	111 	112
f 112 	105 	109
f 108 	109 	105
f 113 	114 	111
f 113 	111 	110
f 106 	115 	116
f 106 	116 	107
f 118 	112 	117
f 114 	117 	111
f 112 	111 	117
f 115 	106 	118
f 106 	105 	118
f 112 	118 	105
f 109 	119 	120
f 120 	117 	114
f 120 	114 	113
f 118 	119 	116
f 118 	116 	115
f 113 	110 	120
f 110 	109 	120
f 116 	119 	107
f 108 	107 	119
f 108 	119 	109
f 119 	118 	117
f 119 	117 	120
# 28 faces

 #end of obj_13

o obj_14
v 20 		-58.3 		21
v 20 		-58.3 		1
v 20 		-54.5 		1
v 20 		-54.5 		21
v 4.2 		-54.5 		21
v 4.2 		-54.5 		1
v 4.2 		-58.3 		1
v 4.2 		-58.3 		21
v 16.103 		-58.3 		7.398
v 8.098 		-58.3 		7.398
v 8.098 		-58.3 		17.403
v 16.103 		-58.3 		17.403
v 8.098 		-54.5 		7.398
v 16.103 		-54.5 		7.398
v 16.103 		-54.5 		17.403
v 8.098 		-54.5 		17.403
# 16 vertices

g group_14_15277357

usemtl color_15277357
s 0

f 121 	122 	123
f 121 	123 	124
f 125 	126 	127
f 125 	127 	128
f 121 	125 	128
f 124 	125 	121
f 127 	122 	130
f 132 	121 	131
f 128 	131 	121
f 128 	127 	130
f 128 	130 	131
f 126 	123 	127
f 122 	127 	123
f 122 	121 	129
f 129 	130 	122
f 132 	129 	121
f 134 	123 	133
f 125 	124 	136
f 135 	132 	131
f 135 	131 	136
f 136 	131 	130
f 136 	130 	133
f 126 	125 	133
f 136 	133 	125
f 132 	135 	134
f 132 	134 	129
f 126 	133 	123
f 124 	123 	134
f 124 	134 	135
f 135 	136 	124
f 129 	134 	133
f 129 	133 	130
# 32 faces

 #end of obj_14

o obj_15
v -47.2 		17.203 		15.403
v -47.2 		17.203 		7.398
v -47.2 		1.198 		7.398
v -47.2 		1.198 		15.403
v -47.2 		-1.1 		1
v -47.2 		21.6 		1
v -47.2 		-1.1 		21
v -47.2 		21.6 		21
v -51 		21.6 		21
v -51 		-1.1 		21
v -51 		-1.1 		1
v -51 		21.6 		1
v -51 		1.198 		15.403
v -51 		1.198 		7.398
v -51 		17.203 		7.398
v -51 		17.203 		15.403
# 16 vertices

g group_15_15277357

usemtl color_15277357
s 0

f 142 	144 	138
f 140 	143 	139
f 139 	141 	138
f 141 	142 	138
f 144 	145 	146
f 144 	146 	143
f 141 	147 	148
f 141 	148 	142
f 141 	139 	143
f 143 	140 	137
f 137 	138 	144
f 143 	137 	144
f 150 	146 	149
f 141 	146 	147
f 141 	143 	146
f 148 	147 	151
f 150 	151 	147
f 146 	150 	147
f 149 	146 	152
f 145 	152 	146
f 145 	142 	148
f 144 	142 	145
f 151 	152 	145
f 151 	145 	148
f 149 	140 	139
f 149 	139 	150
f 137 	152 	151
f 137 	151 	138
f 150 	139 	138
f 150 	138 	151
f 152 	137 	140
f 152 	140 	149
# 32 faces

 #end of obj_15

o obj_16
v -11.2 		56.3 		21
v -11.2 		56.3 		1
v -11.2 		60.1 		1
v -11.2 		60.1 		21
v -47.2 		60.1 		21
v -47.2 		60.1 		1
v -47.2 		56.3 		1
v -47.2 		56.3 		21
v -22.998 		56.3 		7.398
v -39.003 		56.3 		7.398
v -39.003 		56.3 		15.403
v -22.998 		56.3 		15.403
v -39.003 		60.1 		7.398
v -22.998 		60.1 		7.398
v -22.998 		60.1 		15.403
v -39.003 		60.1 		15.403
# 16 vertices

g group_16_15277357

usemtl color_15277357
s 0

f 153 	154 	155
f 153 	155 	156
f 157 	158 	159
f 157 	159 	160
f 153 	157 	160
f 156 	157 	153
f 158 	155 	159
f 154 	159 	155
f 161 	162 	159
f 153 	160 	164
f 163 	164 	160
f 160 	159 	162
f 160 	162 	163
f 154 	153 	161
f 159 	154 	161
f 164 	161 	153
f 165 	166 	158
f 157 	167 	168
f 167 	164 	163
f 167 	163 	168
f 158 	157 	165
f 168 	165 	157
f 168 	163 	162
f 168 	162 	165
f 158 	166 	155
f 156 	155 	166
f 156 	166 	167
f 156 	167 	157
f 164 	167 	166
f 164 	166 	161
f 161 	166 	165
f 161 	165 	162
# 32 faces

 #end of obj_16

o obj_17
v 50 		-24.403 		7.398
v 50 		-24.403 		15.403
v 50 		-12.398 		15.403
v 50 		-12.398 		7.398
v 50 		-32.3 		1
v 50 		-5 		1
v 50 		-32.3 		21
v 50 		-5 		21
v 46.2 		-12.398 		7.398
v 46.2 		-12.398 		15.403
v 46.2 		-24.403 		15.403
v 46.2 		-24.403 		7.398
v 46.2 		-5 		1
v 46.2 		-32.3 		1
v 46.2 		-5 		21
v 46.2 		-32.3 		21
# 16 vertices

g group_17_15277357

usemtl color_15277357
s 0

f 170 	175 	169
f 174 	176 	172
f 173 	174 	169
f 172 	169 	174
f 173 	169 	175
f 171 	176 	170
f 171 	172 	176
f 175 	170 	176
f 178 	183 	177
f 180 	184 	179
f 177 	181 	180
f 181 	182 	180
f 184 	180 	182
f 176 	183 	184
f 176 	184 	175
f 173 	182 	181
f 173 	181 	174
f 181 	177 	183
f 183 	178 	179
f 183 	179 	184
f 173 	175 	184
f 173 	184 	182
f 171 	178 	177
f 171 	177 	172
f 180 	169 	172
f 180 	172 	177
f 181 	183 	174
f 176 	174 	183
f 178 	171 	170
f 178 	170 	179
f 179 	170 	169
f 179 	169 	180
# 32 faces

 #end of obj_17

o obj_18
v 50 		-5 		21
v 50 		-1.2 		21
v 50 		-5 		1
v 50 		-1.2 		1
v 32 		-1.2 		21
v 32 		-5 		21
v 32 		-1.2 		1
v 32 		-5 		1
# 8 vertices

g group_18_15277357

usemtl color_15277357
s 0

f 185 	187 	186
f 187 	188 	186
f 189 	191 	190
f 191 	192 	190
f 189 	190 	186
f 190 	185 	186
f 192 	191 	187
f 191 	188 	187
f 190 	192 	185
f 192 	187 	185
f 186 	188 	189
f 188 	191 	189
# 12 faces

 #end of obj_18

o obj_19
v 3 		-58.3 		21
v 3 		-58.3 		1
v 3 		-54.5 		1
v 3 		-54.5 		21
v -10 		-54.5 		21
v -10 		-54.5 		17.003
v -10 		-58.3 		17.003
v -10 		-58.3 		21
v -1.298 		-58.3 		1
v -1.298 		-54.5 		1
v -1.298 		-58.3 		17.003
v -1.298 		-54.5 		17.003
# 12 vertices

g group_19_15277357

usemtl color_15277357
s 0

f 193 	194 	195
f 193 	195 	196
f 197 	198 	199
f 197 	199 	200
f 196 	197 	200
f 196 	200 	193
f 194 	201 	202
f 194 	202 	195
f 200 	199 	203
f 201 	194 	203
f 194 	193 	203
f 200 	203 	193
f 204 	203 	199
f 204 	199 	198
f 197 	204 	198
f 203 	204 	202
f 203 	202 	201
f 202 	204 	195
f 196 	195 	204
f 196 	204 	197
# 20 faces

 #end of obj_19

o obj_20
v -11.2 		21.6 		21
v -11.2 		21.6 		1
v -11.2 		22.8 		1
v -11.2 		22.8 		21
v -51 		22.8 		21
v -51 		22.8 		1
v -51 		21.6 		1
v -51 		21.6 		21
v -21.003 		22.8 		1
v -21.003 		21.6 		1
v -11.998 		21.6 		1
v -11.998 		22.8 		1
v -21.003 		21.6 		17.003
v -11.998 		21.6 		17.003
v -11.998 		22.8 		17.003
v -21.003 		22.8 		17.003
# 16 vertices

g group_20_15277357

usemtl color_15277357
s 0

f 205 	206 	207
f 205 	207 	208
f 209 	210 	211
f 209 	211 	212
f 212 	205 	209
f 208 	209 	205
f 213 	214 	211
f 213 	211 	210
f 206 	215 	216
f 206 	216 	207
f 214 	217 	211
f 212 	211 	217
f 218 	205 	217
f 215 	206 	218
f 206 	205 	218
f 212 	217 	205
f 209 	208 	220
f 220 	217 	214
f 220 	214 	213
f 213 	210 	220
f 210 	209 	220
f 218 	219 	216
f 218 	216 	215
f 216 	219 	207
f 208 	207 	219
f 219 	220 	208
f 219 	218 	217
f 219 	217 	220
# 28 faces

 #end of obj_20

o obj_21
v 4.2 		-34.398 		17.003
v 4.2 		-34.398 		1
v 4.2 		-32.3 		1
v 4.2 		-43.403 		1
v 4.2 		-43.403 		17.003
v 4.2 		-58.3 		1
v 4.2 		-58.3 		21
v 4.2 		-32.3 		21
v 3 		-34.398 		1
v 3 		-34.398 		17.003
v 3 		-32.3 		1
v 3 		-58.3 		1
v 3 		-43.403 		1
v 3 		-32.3 		21
v 3 		-43.403 		17.003
v 3 		-58.3 		21
# 16 vertices

g group_21_15277357

usemtl color_15277357
s 0

f 223 	221 	222
f 224 	225 	226
f 227 	226 	225
f 221 	228 	225
f 223 	228 	221
f 227 	225 	228
f 229 	230 	231
f 226 	232 	233
f 226 	233 	224
f 234 	231 	230
f 234 	230 	235
f 232 	236 	235
f 234 	235 	236
f 228 	234 	236
f 228 	236 	227
f 226 	227 	232
f 236 	232 	227
f 222 	229 	231
f 222 	231 	223
f 235 	225 	224
f 235 	224 	233
f 230 	221 	225
f 230 	225 	235
f 232 	235 	233
f 228 	223 	231
f 228 	231 	234
f 221 	230 	229
f 221 	229 	222
# 28 faces

 #end of obj_21

o obj_22
v -10 		-28.4 		21
v -10 		-27.2 		21
v -10 		-28.4 		1
v -10 		-27.2 		1
v -51 		-27.2 		21
v -51 		-28.4 		21
v -51 		-27.2 		1
v -51 		-28.4 		1
# 8 vertices

g group_22_15277357

usemtl color_15277357
s 0

f 237 	239 	238
f 239 	240 	238
f 241 	243 	242
f 243 	244 	242
f 241 	242 	238
f 242 	237 	238
f 244 	243 	239
f 243 	240 	239
f 242 	244 	237
f 244 	239 	237
f 238 	240 	241
f 240 	243 	241
# 12 faces

 #end of obj_22

o obj_23
v 21.2 		-58.3 		21
v 21.2 		-32.3 		21
v 21.2 		-58.3 		1
v 21.2 		-32.3 		1
v 20 		-32.3 		21
v 20 		-58.3 		21
v 20 		-32.3 		1
v 20 		-58.3 		1
# 8 vertices

g group_23_15277357

usemtl color_15277357
s 0

f 245 	247 	246
f 247 	248 	246
f 249 	251 	250
f 251 	252 	250
f 249 	250 	246
f 250 	245 	246
f 252 	251 	247
f 251 	248 	247
f 250 	252 	245
f 252 	247 	245
f 246 	248 	249
f 248 	251 	249
# 12 faces

 #end of obj_23

o obj_24
v 9.2 		-18.398 		17.003
v 9.2 		-18.398 		1
v 9.2 		-5 		1
v 9.2 		-27.403 		1
v 9.2 		-27.403 		17.003
v 9.2 		-32.3 		1
v 9.2 		-32.3 		21
v 9.2 		-5 		21
v 8 		-18.398 		1
v 8 		-18.398 		17.003
v 8 		-5 		1
v 8 		-27.403 		17.003
v 8 		-27.403 		1
v 8 		-32.3 		1
v 8 		-5 		21
v 8 		-32.3 		21
# 16 vertices

g group_24_15277357

usemtl color_15277357
s 0

f 255 	253 	254
f 256 	257 	258
f 259 	258 	257
f 259 	257 	253
f 255 	260 	253
f 259 	253 	260
f 261 	262 	263
f 266 	264 	265
f 258 	266 	265
f 258 	265 	256
f 267 	263 	262
f 264 	268 	262
f 266 	268 	264
f 267 	262 	268
f 260 	267 	268
f 260 	268 	259
f 258 	259 	266
f 268 	266 	259
f 254 	261 	263
f 254 	263 	255
f 264 	257 	256
f 264 	256 	265
f 260 	255 	263
f 260 	263 	267
f 253 	262 	261
f 253 	261 	254
f 262 	253 	257
f 262 	257 	264
# 28 faces

 #end of obj_24

o obj_25
v 50 		27.103 		17.003
v 50 		27.103 		1
v 50 		56.3 		1
v 50 		19.098 		1
v 50 		19.098 		17.003
v 50 		-1.2 		1
v 50 		-1.2 		21
v 50 		56.3 		21
v 46.2 		56.3 		21
v 46.2 		27.103 		17.003
v 46.2 		19.098 		17.003
v 46.2 		-1.2 		21
v 46.2 		27.103 		1
v 46.2 		56.3 		1
v 46.2 		-1.2 		1
v 46.2 		19.098 		1
# 16 vertices

g group_25_15277357

usemtl color_15277357
s 0

f 271 	269 	270
f 272 	273 	274
f 275 	274 	273
f 275 	273 	269
f 271 	276 	269
f 275 	269 	276
f 279 	280 	278
f 277 	278 	280
f 277 	282 	278
f 281 	278 	282
f 284 	283 	279
f 280 	279 	283
f 279 	273 	272
f 279 	272 	284
f 277 	271 	282
f 278 	269 	273
f 278 	273 	279
f 274 	283 	284
f 274 	284 	272
f 274 	280 	283
f 276 	271 	277
f 274 	275 	280
f 276 	277 	280
f 276 	280 	275
f 269 	278 	281
f 269 	281 	270
f 270 	281 	282
f 270 	282 	271
# 28 faces

 #end of obj_25

o obj_26
v -10 		-30.504 		17.003
v -10 		-30.504 		1
v -10 		-27.3 		1
v -10 		-40.13 		1
v -10 		-40.13 		17.003
v -10 		-58.3 		1
v -10 		-58.3 		21
v -10 		-27.3 		21
v -11.2 		-30.504 		1
v -11.2 		-30.504 		17.003
v -11.2 		-27.3 		1
v -11.2 		-27.3 		21
v -11.2 		-40.13 		17.003
v -11.2 		-58.3 		21
v -11.2 		-58.3 		1
v -11.2 		-40.13 		1
# 16 vertices

g group_26_15277357

usemtl color_15277357
s 0

f 287 	285 	286
f 288 	289 	290
f 291 	290 	289
f 285 	292 	289
f 287 	292 	285
f 291 	289 	292
f 293 	294 	295
f 296 	295 	294
f 296 	294 	297
f 296 	297 	298
f 292 	296 	298
f 292 	298 	291
f 297 	289 	288
f 297 	288 	300
f 294 	285 	289
f 294 	289 	297
f 300 	299 	297
f 298 	297 	299
f 290 	299 	300
f 290 	300 	288
f 286 	293 	295
f 286 	295 	287
f 290 	298 	299
f 292 	287 	295
f 292 	295 	296
f 290 	291 	298
f 285 	294 	293
f 285 	293 	286
# 28 faces

 #end of obj_26

o obj_27
v -47.2 		-33.594 		15.403
v -47.2 		-33.594 		7.398
v -47.2 		-47.535 		7.398
v -47.2 		-47.535 		15.403
v -47.2 		-54.5 		1
v -47.2 		-27.5 		1
v -47.2 		-54.5 		21
v -47.2 		-27.5 		21
v -51 		-33.594 		7.398
v -51 		-47.535 		15.403
v -51 		-33.594 		15.403
v -51 		-47.535 		7.398
v -51 		-27.5 		21
v -51 		-54.5 		21
v -51 		-27.5 		1
v -51 		-54.5 		1
# 16 vertices

g group_27_15277357

usemtl color_15277357
s 0

f 306 	308 	302
f 304 	307 	303
f 305 	306 	303
f 302 	303 	306
f 305 	303 	307
f 301 	308 	304
f 301 	302 	308
f 307 	304 	308
f 312 	314 	310
f 311 	313 	309
f 308 	313 	314
f 308 	314 	307
f 309 	315 	312
f 315 	316 	312
f 314 	312 	316
f 305 	316 	315
f 305 	315 	306
f 305 	314 	316
f 315 	309 	313
f 313 	311 	310
f 313 	310 	314
f 305 	307 	314
f 310 	304 	303
f 310 	303 	312
f 312 	303 	302
f 312 	302 	309
f 315 	313 	306
f 308 	306 	313
f 301 	311 	309
f 301 	309 	302
f 311 	301 	304
f 311 	304 	310
# 32 faces

 #end of obj_27

o obj_28
v -47.2 		-7.094 		15.403
v -47.2 		-7.094 		7.398
v -47.2 		-21.035 		7.398
v -47.2 		-21.035 		15.403
v -47.2 		-28 		1
v -47.2 		-1 		1
v -47.2 		-28 		21
v -47.2 		-1 		21
v -51 		-7.094 		7.398
v -51 		-7.094 		15.403
v -51 		-21.035 		15.403
v -51 		-21.035 		7.398
v -51 		-1 		21
v -51 		-28 		21
v -51 		-1 		1
v -51 		-28 		1
# 16 vertices

g group_28_15277357

usemtl color_15277357
s 0

f 322 	324 	318
f 320 	323 	319
f 321 	322 	319
f 318 	319 	322
f 321 	319 	323
f 317 	324 	320
f 317 	318 	324
f 323 	320 	324
f 328 	330 	327
f 326 	329 	325
f 324 	329 	330
f 324 	330 	323
f 325 	331 	328
f 331 	332 	328
f 330 	328 	332
f 321 	332 	331
f 321 	331 	322
f 331 	325 	329
f 329 	326 	327
f 329 	327 	330
f 321 	323 	330
f 321 	330 	332
f 327 	320 	319
f 327 	319 	328
f 331 	329 	322
f 324 	322 	329
f 328 	319 	318
f 328 	318 	325
f 317 	326 	325
f 317 	325 	318
f 326 	317 	320
f 326 	320 	327
# 32 faces

 #end of obj_28

o obj_29
v -10 		-7.386 		17.003
v -10 		-7.386 		1
v -10 		-1.5 		1
v -10 		-16.225 		1
v -10 		-16.225 		17.003
v -10 		-28 		1
v -10 		-28 		21
v -10 		-1.5 		21
v -11.2 		-7.386 		1
v -11.2 		-7.386 		17.003
v -11.2 		-1.5 		1
v -11.2 		-1.5 		21
v -11.2 		-16.225 		17.003
v -11.2 		-28 		21
v -11.2 		-28 		1
v -11.2 		-16.225 		1
# 16 vertices

g group_29_15277357

usemtl color_15277357
s 0

f 335 	333 	334
f 336 	337 	338
f 339 	338 	337
f 333 	340 	337
f 335 	340 	333
f 339 	337 	340
f 341 	342 	343
f 344 	343 	342
f 344 	342 	345
f 344 	345 	346
f 340 	344 	346
f 340 	346 	339
f 348 	347 	345
f 346 	345 	347
f 334 	341 	343
f 334 	343 	335
f 338 	347 	348
f 338 	348 	336
f 338 	346 	347
f 338 	339 	346
f 345 	337 	336
f 345 	336 	348
f 342 	333 	337
f 342 	337 	345
f 340 	335 	343
f 340 	343 	344
f 333 	342 	341
f 333 	341 	334
# 28 faces

 #end of obj_29

o obj_30
v -23 		15.603 		17.003
v -23 		15.603 		1
v -23 		21.6 		1
v -23 		6.598 		1
v -23 		6.598 		17.003
v -23 		-1.1 		1
v -23 		-1.1 		21
v -23 		21.6 		21
v -24.2 		15.603 		1
v -24.2 		15.603 		17.003
v -24.2 		21.6 		1
v -24.2 		6.598 		17.003
v -24.2 		21.6 		21
v -24.2 		-1.1 		21
v -24.2 		6.598 		1
v -24.2 		-1.1 		1
# 16 vertices

g group_30_15277357

usemtl color_15277357
s 0

f 351 	349 	350
f 352 	353 	354
f 355 	354 	353
f 349 	356 	353
f 351 	356 	349
f 355 	353 	356
f 357 	358 	359
f 361 	359 	358
f 361 	358 	360
f 361 	360 	362
f 363 	364 	360
f 362 	360 	364
f 356 	361 	362
f 356 	362 	355
f 354 	364 	363
f 354 	363 	352
f 350 	357 	359
f 350 	359 	351
f 354 	362 	364
f 354 	355 	362
f 360 	353 	352
f 360 	352 	363
f 358 	349 	353
f 358 	353 	360
f 356 	351 	359
f 356 	359 	361
f 349 	358 	357
f 349 	357 	350
# 28 faces

 #end of obj_30

